<svg width="28" height="24" viewBox="0 0 28 24" fill="none" xmlns="http://www.w3.org/2000/svg">
<path d="M13.7144 0C6.15267 0 9.6065e-05 5.38286 9.6065e-05 12C9.6065e-05 14.712 1.03552 17.3143 2.93667 19.4057L0.207525 22.584C-0.0119039 22.8377 -0.0616182 23.196 0.0789532 23.4994C0.21781 23.8046 0.522953 24 0.857239 24H13.7144C21.2761 24 27.4287 18.6171 27.4287 12C27.4287 5.38286 21.2761 0 13.7144 0ZM6.85724 13.7143C5.91095 13.7143 5.14295 12.9463 5.14295 12C5.14295 11.0537 5.91095 10.2857 6.85724 10.2857C7.80352 10.2857 8.57152 11.0537 8.57152 12C8.57152 12.9463 7.80352 13.7143 6.85724 13.7143ZM13.7144 13.7143C12.7681 13.7143 12.0001 12.9463 12.0001 12C12.0001 11.0537 12.7681 10.2857 13.7144 10.2857C14.6607 10.2857 15.4287 11.0537 15.4287 12C15.4287 12.9463 14.6607 13.7143 13.7144 13.7143ZM20.5715 13.7143C19.6252 13.7143 18.8572 12.9463 18.8572 12C18.8572 11.0537 19.6252 10.2857 20.5715 10.2857C21.5178 10.2857 22.2858 11.0537 22.2858 12C22.2858 12.9463 21.5178 13.7143 20.5715 13.7143Z" fill="#2C2E34"/>
</svg>
