<svg width="26" height="24" viewBox="0 0 26 24" fill="none" xmlns="http://www.w3.org/2000/svg">
<path d="M10.152 22.5584V15.3529H15.7896V22.5584C15.7864 22.9364 15.933 23.3003 16.1974 23.5704C16.4618 23.8406 16.8224 23.995 17.2004 24H21.4313C21.8093 23.995 22.1699 23.8406 22.4343 23.5704C22.6987 23.3003 22.8453 22.9364 22.8421 22.5584V12.471H25.2394C25.3841 12.4692 25.5249 12.4236 25.6432 12.3402C25.7616 12.2568 25.8519 12.1396 25.9023 12.0039C25.9527 11.8682 25.9608 11.7205 25.9257 11.58C25.8905 11.4396 25.8136 11.3132 25.7052 11.2173L13.9185 0.367507C13.6605 0.131126 13.3234 0 12.9735 0C12.6236 0 12.2864 0.131126 12.0285 0.367507L0.237762 11.2146C0.130715 11.3111 0.0551121 11.4375 0.0207502 11.5775C-0.0136117 11.7174 -0.00514939 11.8645 0.045041 11.9996C0.0952314 12.1347 0.184836 12.2516 0.302246 12.3352C0.419655 12.4187 0.559458 12.4651 0.703539 12.4683H3.09954V22.5557C3.09631 22.9337 3.24293 23.2976 3.50731 23.5677C3.77169 23.8379 4.13232 23.9924 4.5103 23.9973H8.74122C9.11872 23.9924 9.47894 23.8383 9.74325 23.5687C10.0076 23.2991 10.1545 22.9359 10.152 22.5584Z" fill="#2C2E34"/>
</svg>
