<svg width="44" height="44" viewBox="0 0 44 44" fill="none" xmlns="http://www.w3.org/2000/svg">
<circle cx="22" cy="22" r="22" fill="#18A0FB"/>
<path d="M21.9999 12.9412L22.707 12.2341C22.3165 11.8435 21.6833 11.8435 21.2928 12.2341L21.9999 12.9412ZM27.7634 20.1189C28.1539 20.5094 28.7871 20.5094 29.1776 20.1189C29.5681 19.7283 29.5681 19.0952 29.1776 18.7046L27.7634 20.1189ZM14.8222 18.7046C14.4317 19.0952 14.4317 19.7283 14.8222 20.1189C15.2127 20.5094 15.8459 20.5094 16.2364 20.1189L14.8222 18.7046ZM20.9999 31.0588C20.9999 31.6111 21.4476 32.0588 21.9999 32.0588C22.5522 32.0588 22.9999 31.6111 22.9999 31.0588H20.9999ZM21.2928 13.6483L27.7634 20.1189L29.1776 18.7046L22.707 12.2341L21.2928 13.6483ZM21.2928 12.2341L14.8222 18.7046L16.2364 20.1189L22.707 13.6483L21.2928 12.2341ZM20.9999 12.9412V22H22.9999V12.9412H20.9999ZM20.9999 22V31.0588H22.9999V22H20.9999Z" fill="white"/>
</svg>
